<svg width="196" height="202" viewBox="0 0 196 202" fill="none" xmlns="http://www.w3.org/2000/svg">
    <path d="M66.4391 168.543C1.01065 163.106 36.1731 153.76 92.6666 152.643C95.8029 152.581 99.0086 152.544 102.264 152.534C108.215 152.505 113.876 152.652 119.009 152.978C120.72 153.087 122.374 153.215 123.962 153.364C125.809 153.526 127.618 153.684 129.397 153.85C131.177 154.016 132.927 154.19 134.654 154.384C135.743 154.496 136.577 154.652 137.684 154.783C143.328 155.611 145.947 156.647 153.643 157.111C170.708 158.156 190.119 159.655 186.477 162.607C186.161 162.983 185.538 163.354 184.661 163.712C172.372 168.726 110.633 171.264 66.4391 168.543Z" fill="#E8EBEE" />
    <path d="M42.8687 151.853L78.8476 116.757L80.7787 118.737L44.7997 153.833L42.8687 151.853Z" fill="#D2CCE0" />
    <path d="M44.4463 153.523L80.4253 118.426L81.7717 119.807L45.7927 154.903L44.4463 153.523Z" fill="#D2CCE0" />
    <path d="M45.9585 154.198L81.9375 119.102L85.1506 122.396L49.1716 157.492L45.9585 154.198Z" fill="white" />
    <path d="M80.5254 118.715L94.0071 104.957L96.559 107.458L83.0773 121.216L80.5254 118.715Z" fill="#200063" />
    <path d="M94.7736 105.641C94.5122 105.38 94.0906 105.378 93.8264 105.635L80.9148 118.212L79.6577 117.035C79.3947 116.788 78.9844 116.792 78.7259 117.043L43.1781 151.58C43.0473 151.707 42.9734 151.881 42.9734 152.064C42.9734 152.246 43.0473 152.421 43.1781 152.548L48.647 157.861C48.9089 158.116 49.3257 158.116 49.5877 157.861L85.1355 123.325C85.266 123.198 85.3398 123.024 85.3401 122.842C85.3405 122.66 85.2674 122.485 85.1374 122.358L83.723 120.973L96.2065 108.003C96.4619 107.738 96.4574 107.316 96.1963 107.056L94.7736 105.641Z" stroke="#200063" stroke-width="1.35" stroke-linecap="round" stroke-linejoin="round" />
    <path d="M116.445 114.643C132.495 114.643 145.534 101.937 145.534 86.2298C145.534 70.5224 132.495 57.8166 116.445 57.8166C100.395 57.8166 87.3553 70.5224 87.3553 86.2298C87.3553 101.937 100.395 114.643 116.445 114.643Z" fill="white" stroke="#200063" stroke-width="1.35" />
    <path d="M131.373 41.2988C131.058 41.1775 130.699 41.257 130.465 41.5007C130.23 41.7447 130.165 42.1052 130.299 42.416L131.208 44.527L129.907 47.2109C129.748 47.5391 129.818 47.9314 130.081 48.1838C130.343 48.4362 130.738 48.4909 131.06 48.3195L133.691 46.9147L135.835 47.7398C136.151 47.8612 136.509 47.7816 136.744 47.538C136.978 47.294 137.044 46.9335 136.91 46.6227L136.001 44.5119L137.302 41.8277C137.461 41.4996 137.39 41.1073 137.128 40.8549C136.866 40.6025 136.47 40.5478 136.149 40.7191L133.518 42.1243L131.373 41.2988ZM134.319 44.1244C134.316 44.1307 134.316 44.1378 134.314 44.1444C134.281 44.2155 134.259 44.29 134.247 44.3673C134.245 44.3825 134.244 44.3974 134.243 44.4129C134.236 44.4844 134.237 44.5566 134.249 44.6289C134.25 44.636 134.25 44.6432 134.251 44.6503C134.263 44.7089 134.279 44.7669 134.304 44.8238L134.575 45.4531L133.935 45.2069C133.926 45.2029 133.916 45.2022 133.906 45.1988C133.879 45.1893 133.851 45.1827 133.822 45.1758C133.796 45.1698 133.77 45.1637 133.744 45.1601C133.717 45.1565 133.691 45.1558 133.663 45.1548C133.636 45.1536 133.609 45.1526 133.582 45.1544C133.555 45.1561 133.529 45.1604 133.502 45.1645C133.475 45.1686 133.448 45.173 133.421 45.1801C133.396 45.1865 133.371 45.196 133.346 45.2051C133.319 45.2151 133.292 45.2252 133.266 45.2379C133.256 45.2422 133.247 45.2445 133.237 45.2494L132.548 45.6177L132.889 44.9146C132.893 44.905 132.895 44.8951 132.899 44.8855C132.911 44.8594 132.92 44.8328 132.928 44.8056C132.937 44.7795 132.945 44.7538 132.951 44.7275C132.956 44.7018 132.959 44.6756 132.963 44.6497C132.966 44.6216 132.97 44.5936 132.971 44.5656C132.971 44.5404 132.969 44.5151 132.967 44.4896C132.965 44.4602 132.963 44.4314 132.958 44.4026C132.954 44.3789 132.948 44.3556 132.941 44.3325C132.933 44.3017 132.924 44.2713 132.912 44.2418C132.909 44.2332 132.907 44.2243 132.904 44.2158L132.633 43.5865L133.272 43.8327C133.281 43.8361 133.29 43.8371 133.299 43.8399C133.329 43.8503 133.359 43.8577 133.389 43.8646C133.414 43.87 133.437 43.8758 133.462 43.8792C133.49 43.8831 133.519 43.8841 133.548 43.885C133.573 43.886 133.599 43.8869 133.625 43.8855C133.653 43.8838 133.68 43.8794 133.708 43.8747C133.734 43.8703 133.76 43.8665 133.786 43.8598C133.812 43.8527 133.837 43.8436 133.863 43.8342C133.89 43.8244 133.916 43.8141 133.942 43.802C133.951 43.7977 133.961 43.7954 133.97 43.7905L134.66 43.4219L134.319 44.1244Z" fill="#1FDCC1" />
    <path d="M110.01 132.337C110.474 131.853 110.459 131.082 109.976 130.618C109.493 130.153 108.722 130.168 108.257 130.651C107.792 131.135 107.807 131.906 108.291 132.37C108.774 132.835 109.545 132.82 110.01 132.337Z" fill="#1FDCC1" />
    <path d="M156.258 87.5311C155.794 88.015 155.807 88.7842 156.285 89.2462C156.764 89.7082 157.531 89.6907 157.994 89.2067C158.458 88.7228 158.445 87.9537 157.967 87.4913C157.488 87.0293 156.721 87.0474 156.258 87.5311Z" fill="#1FDCC1" />
    <path d="M106.695 34.1956C107.108 33.7661 107.052 33.0388 106.568 32.5738C106.085 32.1092 105.356 32.0809 104.943 32.5104C104.53 32.9399 104.587 33.667 105.07 34.1316C105.554 34.5965 106.282 34.6251 106.695 34.1956Z" fill="#1FDCC1" />
    <path d="M57.0906 67.4828C56.6075 67.0183 55.8362 67.0335 55.3718 67.5165C54.9073 67.9995 54.922 68.7705 55.4054 69.2353C55.8886 69.6999 56.6595 69.685 57.1243 69.2017C57.589 68.7184 57.574 67.9477 57.0906 67.4828Z" fill="#1FDCC1" />
    <path d="M171.901 55.5983C171.562 55.2712 171.024 55.2813 170.7 55.6202L170.101 56.2447L169.785 55.9392C169.446 55.6121 168.908 55.6222 168.583 55.9611C168.259 56.3 168.27 56.84 168.609 57.1671L168.925 57.4726L168.327 58.097C168.002 58.4359 168.013 58.9759 168.352 59.303C168.691 59.6298 169.229 59.6199 169.554 59.281L170.152 58.6566L170.468 58.9621C170.807 59.2889 171.345 59.279 171.67 58.9401C171.994 58.6012 171.983 58.0609 171.645 57.7341L171.328 57.4287L171.926 56.8043C172.251 56.4654 172.24 55.9251 171.901 55.5983Z" fill="#1FDCC1" />
    <path d="M60.8711 112.405C60.5504 112.097 60.0265 112.122 59.701 112.46L59.1014 113.084L58.8019 112.796C58.4812 112.487 57.9573 112.512 57.6318 112.851C57.3064 113.189 57.302 113.714 57.6227 114.022L57.9222 114.31L57.3226 114.934C56.9972 115.272 56.9928 115.796 57.3135 116.105C57.6339 116.413 58.1581 116.388 58.4835 116.05L59.0831 115.426L59.3826 115.714C59.7031 116.022 60.2272 115.998 60.5527 115.659C60.8781 115.321 60.8822 114.796 60.5618 114.488L60.2623 114.2L60.8619 113.576C61.1874 113.238 61.1915 112.713 60.8711 112.405Z" fill="#1FDCC1" />
    <path d="M148.232 130.366C147.911 130.058 147.387 130.083 147.062 130.421L146.462 131.045L146.163 130.757C145.842 130.448 145.318 130.473 144.993 130.812C144.667 131.15 144.663 131.675 144.984 131.983L145.283 132.271L144.683 132.894C144.358 133.233 144.354 133.758 144.674 134.066C144.995 134.374 145.519 134.349 145.844 134.011L146.444 133.387L146.743 133.675C147.064 133.984 147.588 133.959 147.914 133.62C148.239 133.282 148.243 132.757 147.923 132.449L147.623 132.161L148.223 131.537C148.548 131.199 148.552 130.674 148.232 130.366Z" fill="#1FDCC1" />
    <path d="M168.803 111.959L168.394 111.032L168.965 109.82C169.117 109.498 169.042 109.109 168.779 108.855C168.516 108.602 168.125 108.542 167.811 108.707L166.628 109.327L165.688 108.953C165.375 108.828 165.023 108.901 164.795 109.139C164.568 109.376 164.508 109.732 164.646 110.042L165.055 110.969L164.483 112.18C164.332 112.502 164.407 112.891 164.67 113.145C164.932 113.399 165.323 113.459 165.637 113.294L166.821 112.674L167.76 113.048C168.073 113.173 168.425 113.1 168.653 112.863C168.881 112.624 168.94 112.269 168.803 111.959Z" fill="#1FDCC1" />
    <path d="M84.324 57.464L83.9088 56.5335L84.4795 55.3214C84.6308 54.9991 84.5538 54.609 84.2885 54.3539C84.0233 54.0988 83.6298 54.0372 83.314 54.2013L82.1258 54.8189L81.1794 54.4402C80.8639 54.314 80.5098 54.3861 80.2818 54.6233C80.0535 54.8607 79.9952 55.2168 80.134 55.5273L80.5495 56.4582L79.9785 57.67C79.8273 57.9922 79.9039 58.3827 80.1692 58.6378C80.4345 58.8929 80.828 58.9545 81.1435 58.7907L82.3323 58.173L83.2784 58.5514C83.5941 58.6774 83.9479 58.6055 84.176 58.3684C84.4043 58.131 84.4622 57.7746 84.324 57.464Z" fill="#1FDCC1" />
    <path d="M116.625 109.818C129.845 109.818 140.583 99.2856 140.583 86.2683C140.583 73.2511 129.845 62.7188 116.625 62.7188C103.405 62.7188 92.6668 73.2511 92.6668 86.2683C92.6668 99.2856 103.405 109.818 116.625 109.818Z" fill="#200063" fill-opacity="0.2" stroke="#200063" stroke-width="1.35" />
    <path d="M122.014 90.5807C122.217 90.7841 122.319 91.0299 122.319 91.3181C122.319 91.5723 122.226 91.7927 122.039 91.9791C121.853 92.1656 121.633 92.2588 121.378 92.2588C121.107 92.2588 120.861 92.1402 120.641 91.9029L116.522 87.199L112.428 91.9029C112.208 92.1402 111.962 92.2588 111.691 92.2588C111.437 92.2588 111.208 92.1656 111.004 91.9791C110.818 91.7927 110.725 91.5638 110.725 91.2926C110.725 91.0384 110.826 90.801 111.03 90.5807L115.251 85.8259L111.208 81.2237C111.004 80.9864 110.903 80.7491 110.903 80.5118C110.903 80.2406 110.996 80.0117 111.182 79.8253C111.386 79.6388 111.606 79.5456 111.843 79.5456C112.115 79.5456 112.36 79.6642 112.581 79.9015L116.522 84.4275L120.463 79.9015C120.683 79.6642 120.929 79.5456 121.2 79.5456C121.455 79.5456 121.675 79.6388 121.861 79.8253C122.048 80.0117 122.141 80.2321 122.141 80.4863C122.141 80.7745 122.039 81.0203 121.836 81.2237L117.793 85.8259L122.014 90.5807Z" fill="#200062" />
</svg>
    