<svg width="25" height="24" viewBox="0 0 25 24" fill="none" xmlns="http://www.w3.org/2000/svg">
    <circle cx="12.5" cy="12" r="12" fill="#4310AE" />
    <path d="M7.7806 13.7207C7.95834 13.8996 8.19877 14 8.44938 14C8.69999 14 8.94042 13.8996 9.11816 13.7207L12.5237 10.3204L15.8818 13.7207C16.0596 13.8996 16.3 14 16.5506 14C16.8012 14 17.0417 13.8996 17.2194 13.7207C17.3083 13.6314 17.3789 13.5252 17.427 13.4081C17.4752 13.2911 17.5 13.1655 17.5 13.0387C17.5 12.9119 17.4752 12.7864 17.427 12.6693C17.3789 12.5523 17.3083 12.446 17.2194 12.3567L13.1972 8.28412C13.1091 8.19409 13.0041 8.12264 12.8885 8.07387C12.7729 8.02511 12.6489 8 12.5237 8C12.3985 8 12.2745 8.02511 12.1589 8.07387C12.0433 8.12264 11.9384 8.19409 11.8502 8.28412L7.7806 12.3567C7.69169 12.446 7.62112 12.5523 7.57296 12.6693C7.5248 12.7864 7.5 12.9119 7.5 13.0387C7.5 13.1655 7.5248 13.2911 7.57296 13.4081C7.62112 13.5252 7.69169 13.6314 7.7806 13.7207Z" fill="white" />
</svg>
    