<svg width="254" height="254" viewBox="0 0 254 254" fill="none" xmlns="http://www.w3.org/2000/svg">
    <g filter="url(#filter0_d_4_93)">
        <circle cx="127" cy="119" r="100" fill="url(#paint0_linear_4_93)" />
        <circle cx="127" cy="119" r="100" stroke="#4310AE" stroke-width="3" />
    </g>
    <mask id="mask0_4_93" style="mask-type:alpha" maskUnits="userSpaceOnUse" x="27" y="19" width="200" height="200">
        <circle cx="127" cy="119" r="99.5" fill="#339AF0" stroke="white" />
    </mask>
    <g mask="url(#mask0_4_93)">
        <path d="M92.7417 156.213C92.7417 155.701 92.5618 155.297 92.2021 155.001C91.8424 154.701 91.1844 154.417 90.228 154.15C89.2716 153.88 88.5734 153.585 88.1333 153.268C87.507 152.819 87.1938 152.231 87.1938 151.503C87.1938 150.797 87.4837 150.223 88.0635 149.783C88.6474 149.339 89.3922 149.117 90.2978 149.117C90.9114 149.117 91.4595 149.235 91.9419 149.472C92.4285 149.709 92.8052 150.039 93.0718 150.462C93.3384 150.886 93.4717 151.357 93.4717 151.878H92.6846C92.6846 151.247 92.4687 150.742 92.0371 150.361C91.6055 149.976 91.0257 149.783 90.2978 149.783C89.5911 149.783 89.0283 149.942 88.6094 150.259C88.1904 150.572 87.9809 150.983 87.9809 151.491C87.9809 151.96 88.1693 152.343 88.5459 152.64C88.9225 152.936 89.5255 153.198 90.355 153.427C91.1844 153.651 91.8128 153.886 92.2402 154.131C92.6676 154.373 92.9892 154.662 93.2051 155.001C93.4209 155.34 93.5288 155.739 93.5288 156.201C93.5288 156.929 93.2368 157.513 92.6528 157.953C92.0731 158.393 91.3071 158.613 90.355 158.613C89.7033 158.613 89.1045 158.496 88.5586 158.264C88.0169 158.031 87.6043 157.705 87.3208 157.286C87.0415 156.867 86.9018 156.387 86.9018 155.845H87.6826C87.6826 156.497 87.9259 157.011 88.4126 157.388C88.8992 157.764 89.5467 157.953 90.355 157.953C91.0744 157.953 91.652 157.794 92.0879 157.477C92.5237 157.159 92.7417 156.738 92.7417 156.213ZM99.4575 157.616C99.0005 158.281 98.2705 158.613 97.2676 158.613C96.5355 158.613 95.979 158.401 95.5981 157.978C95.2173 157.551 95.0226 156.92 95.0141 156.086V151.618H95.7695V155.991C95.7695 157.299 96.2985 157.953 97.3564 157.953C98.4567 157.953 99.1528 157.498 99.4448 156.588V151.618H100.207V158.486H99.4702L99.4575 157.616ZM107.709 155.122C107.709 156.192 107.472 157.043 106.999 157.673C106.525 158.3 105.89 158.613 105.094 158.613C104.155 158.613 103.435 158.283 102.936 157.623V161.126H102.181V151.618H102.885L102.923 152.589C103.418 151.857 104.136 151.491 105.075 151.491C105.896 151.491 106.539 151.802 107.005 152.424C107.475 153.046 107.709 153.909 107.709 155.014V155.122ZM106.948 154.988C106.948 154.112 106.768 153.42 106.408 152.913C106.048 152.405 105.547 152.151 104.904 152.151C104.438 152.151 104.038 152.263 103.704 152.487C103.37 152.712 103.114 153.037 102.936 153.465V156.759C103.118 157.153 103.378 157.453 103.717 157.661C104.055 157.868 104.455 157.972 104.916 157.972C105.555 157.972 106.053 157.718 106.408 157.21C106.768 156.698 106.948 155.957 106.948 154.988ZM112.058 158.613C111.474 158.613 110.945 158.469 110.471 158.181C110.001 157.893 109.635 157.493 109.373 156.981C109.11 156.465 108.979 155.888 108.979 155.249V154.976C108.979 154.315 109.106 153.721 109.36 153.192C109.618 152.663 109.976 152.248 110.433 151.948C110.89 151.643 111.385 151.491 111.918 151.491C112.752 151.491 113.412 151.776 113.898 152.348C114.389 152.915 114.635 153.691 114.635 154.677V155.103H109.734V155.249C109.734 156.027 109.957 156.677 110.401 157.197C110.849 157.714 111.412 157.972 112.089 157.972C112.496 157.972 112.853 157.898 113.162 157.75C113.475 157.601 113.759 157.364 114.013 157.039L114.489 157.4C113.93 158.209 113.12 158.613 112.058 158.613ZM111.918 152.138C111.347 152.138 110.864 152.348 110.471 152.767C110.081 153.186 109.844 153.748 109.76 154.455H113.879V154.373C113.858 153.712 113.67 153.175 113.314 152.76C112.959 152.346 112.493 152.138 111.918 152.138ZM119.288 152.265C119.127 152.236 118.955 152.221 118.773 152.221C118.299 152.221 117.897 152.354 117.567 152.621C117.242 152.883 117.009 153.266 116.869 153.77V158.486H116.114V151.618H116.856L116.869 152.709C117.271 151.897 117.916 151.491 118.805 151.491C119.017 151.491 119.184 151.518 119.307 151.573L119.288 152.265ZM121.249 152.779C121.499 152.369 121.818 152.051 122.208 151.827C122.597 151.603 123.022 151.491 123.483 151.491C124.22 151.491 124.768 151.698 125.127 152.113C125.487 152.528 125.669 153.15 125.673 153.979V158.486H124.918V153.973C124.914 153.359 124.783 152.902 124.524 152.602C124.27 152.301 123.862 152.151 123.299 152.151C122.83 152.151 122.413 152.299 122.049 152.595C121.689 152.887 121.423 153.283 121.249 153.782V158.486H120.494V148.736H121.249V152.779ZM130.288 158.613C129.704 158.613 129.175 158.469 128.701 158.181C128.231 157.893 127.865 157.493 127.603 156.981C127.341 156.465 127.209 155.888 127.209 155.249V154.976C127.209 154.315 127.336 153.721 127.59 153.192C127.848 152.663 128.206 152.248 128.663 151.948C129.12 151.643 129.615 151.491 130.148 151.491C130.982 151.491 131.642 151.776 132.129 152.348C132.62 152.915 132.865 153.691 132.865 154.677V155.103H127.965V155.249C127.965 156.027 128.187 156.677 128.631 157.197C129.08 157.714 129.643 157.972 130.32 157.972C130.726 157.972 131.084 157.898 131.393 157.75C131.706 157.601 131.989 157.364 132.243 157.039L132.719 157.4C132.161 158.209 131.35 158.613 130.288 158.613ZM130.148 152.138C129.577 152.138 129.095 152.348 128.701 152.767C128.312 153.186 128.075 153.748 127.99 154.455H132.11V154.373C132.089 153.712 131.9 153.175 131.545 152.76C131.189 152.346 130.724 152.138 130.148 152.138ZM137.518 152.265C137.357 152.236 137.186 152.221 137.004 152.221C136.53 152.221 136.128 152.354 135.798 152.621C135.472 152.883 135.239 153.266 135.1 153.77V158.486H134.344V151.618H135.087L135.1 152.709C135.502 151.897 136.147 151.491 137.036 151.491C137.247 151.491 137.414 151.518 137.537 151.573L137.518 152.265ZM138.178 154.95C138.178 154.29 138.305 153.695 138.559 153.167C138.817 152.638 139.179 152.227 139.645 151.935C140.114 151.639 140.645 151.491 141.238 151.491C142.152 151.491 142.892 151.812 143.459 152.456C144.027 153.095 144.31 153.943 144.31 155.001V155.16C144.31 155.824 144.181 156.423 143.923 156.956C143.669 157.485 143.309 157.893 142.844 158.181C142.378 158.469 141.847 158.613 141.25 158.613C140.341 158.613 139.6 158.293 139.029 157.654C138.462 157.011 138.178 156.16 138.178 155.103V154.95ZM138.94 155.16C138.94 155.981 139.152 156.656 139.575 157.185C140.002 157.709 140.561 157.972 141.25 157.972C141.936 157.972 142.49 157.709 142.914 157.185C143.341 156.656 143.555 155.959 143.555 155.096V154.95C143.555 154.425 143.457 153.945 143.263 153.509C143.068 153.073 142.795 152.737 142.444 152.5C142.093 152.259 141.691 152.138 141.238 152.138C140.561 152.138 140.008 152.405 139.581 152.938C139.154 153.467 138.94 154.161 138.94 155.02V155.16ZM154.212 155.896H150.017L149.064 158.486H148.246L151.743 149.244H152.486L155.983 158.486H155.171L154.212 155.896ZM150.258 155.229H153.965L152.111 150.196L150.258 155.229ZM158.129 154.722V158.486H157.348V149.244H160.497C161.457 149.244 162.215 149.489 162.769 149.98C163.328 150.471 163.607 151.146 163.607 152.005C163.607 152.872 163.338 153.543 162.801 154.017C162.268 154.487 161.493 154.722 160.478 154.722H158.129ZM158.129 154.062H160.497C161.254 154.062 161.832 153.882 162.229 153.522C162.627 153.162 162.826 152.661 162.826 152.018C162.826 151.379 162.627 150.871 162.229 150.494C161.836 150.113 161.275 149.919 160.547 149.91H158.129V154.062ZM166.311 158.486H165.53V149.244H166.311V158.486Z" fill="#200062" />
        <path d="M136.611 133.869L129.281 126.544L121.949 133.869" fill="#1FDCC1" />
        <path d="M89.5558 112.095C89.4682 111.523 89.4251 110.945 89.4268 110.366V94.8223C89.4152 94.129 89.1315 93.4679 88.6367 92.9817C88.1419 92.4955 87.4757 92.223 86.7817 92.223C86.0877 92.223 85.4215 92.4955 84.9267 92.9817C84.4319 93.4679 84.1481 94.129 84.1366 94.8223V110.545C84.1366 111.076 84.1653 111.591 84.2103 112.095H89.5558Z" fill="#200062" />
        <path d="M109.927 112.095C109.973 111.576 110.001 111.047 110.001 110.5V94.8222C110.001 94.1213 109.722 93.4492 109.226 92.9536C108.73 92.458 108.057 92.1795 107.356 92.1795C106.655 92.1795 105.982 92.458 105.486 92.9536C104.99 93.4492 104.711 94.1213 104.711 94.8222V110.366C104.713 110.945 104.669 111.523 104.582 112.095H109.927Z" fill="#200062" />
        <path d="M75.0828 112.095V94.8222C75.0807 94.1217 74.8011 93.4506 74.3053 92.9554C73.8094 92.4602 73.1376 92.1813 72.4366 92.1795C71.0025 92.1795 69.8368 93.3886 69.8368 94.8222V112.095H75.0828Z" fill="#200062" />
        <path d="M128.698 109.695C131.191 110.34 133.473 110.923 134.658 112.095H140.721C139.857 106.888 134.557 105.512 130.042 104.364C126.5 103.468 123.452 102.706 123.452 100.377C123.452 98.1373 125.425 96.6588 128.966 96.6588C131.438 96.67 133.853 97.4019 135.915 98.7647C136.319 99.0579 136.805 99.2147 137.305 99.2123C137.957 99.2066 138.581 98.9452 139.042 98.4844C139.503 98.0236 139.765 97.4002 139.77 96.7486C139.772 96.3447 139.67 95.9472 139.474 95.5942C139.277 95.2411 138.994 94.9444 138.649 94.7325C135.736 92.8961 132.911 92 129.415 92C122.421 92 118.072 95.8083 118.072 100.735C118.072 107.051 123.81 108.485 128.698 109.695Z" fill="#200062" />
        <path d="M148.063 97.0623H155.057V112.095H160.302V97.0623H167.295C168.548 97.0623 169.627 96.0315 169.627 94.7797C169.623 94.1629 169.377 93.5723 168.94 93.1362C168.504 92.7001 167.912 92.4538 167.295 92.4507H148.062C147.445 92.4538 146.853 92.7001 146.417 93.1362C145.98 93.5723 145.734 94.1629 145.73 94.7797C145.732 96.0359 146.808 97.0623 148.063 97.0623Z" fill="#200062" />
        <path d="M195.852 92.449H176.618C176.001 92.4523 175.41 92.6988 174.974 93.1348C174.538 93.5709 174.291 94.1614 174.288 94.778C174.288 96.0298 175.363 97.0607 176.618 97.0607H183.612V112.096H188.861V97.0629H195.855C197.108 97.0629 198.186 96.032 198.186 94.7803C198.184 94.1626 197.937 93.571 197.499 93.1343C197.062 92.6977 196.47 92.4514 195.852 92.449Z" fill="#200062" />
        <path d="M69.7979 113.51C69.5186 116.368 67.5732 118.205 64.5917 118.205C63.3425 118.22 62.1199 117.844 61.095 117.13C60.7182 116.898 60.2848 116.774 59.8423 116.772C59.5354 116.769 59.231 116.828 58.9469 116.944C58.6628 117.06 58.4046 117.232 58.1874 117.448C57.9702 117.665 57.7984 117.923 57.6818 118.207C57.5653 118.49 57.5064 118.794 57.5085 119.101C57.5085 119.907 57.9116 120.58 58.5402 121.027C60.4679 122.326 62.6197 122.864 64.9955 122.864C70.596 122.864 74.7919 119.874 75.0572 113.512L69.7979 113.51Z" fill="#200062" />
        <path d="M183.612 113.51V119.952C183.614 120.653 183.894 121.324 184.39 121.819C184.885 122.314 185.557 122.593 186.258 122.595C187.693 122.595 188.858 121.385 188.858 119.952V113.51H183.612Z" fill="#200062" />
        <path d="M155.057 113.51V119.952C155.059 120.653 155.339 121.324 155.834 121.819C156.33 122.314 157.002 122.593 157.702 122.595C159.136 122.595 160.302 121.385 160.302 119.952V113.51H155.057Z" fill="#200062" />
        <path d="M104.246 113.51C103.288 116.431 100.857 118.205 97.0924 118.205C93.2907 118.205 90.8522 116.432 89.8943 113.51H84.4028C85.4411 119.194 89.6268 122.861 97.0924 122.861C104.512 122.861 108.691 119.231 109.733 113.51H104.246Z" fill="#200062" />
        <path d="M135.442 113.51C135.488 113.713 135.512 113.92 135.515 114.129C135.515 116.1 133.812 118.205 129.507 118.205C126.37 118.205 123.814 117.13 121.752 115.607C121.313 115.279 120.777 115.106 120.228 115.115C118.883 115.115 117.763 116.234 117.763 117.623C117.765 118.004 117.856 118.381 118.027 118.722C118.198 119.064 118.445 119.362 118.748 119.594C121.393 121.61 124.846 122.864 129.286 122.864C137.356 122.864 140.856 118.608 140.856 113.636C140.856 113.593 140.856 113.553 140.852 113.51H135.442Z" fill="#200062" />
        <circle cx="218.525" cy="186.797" r="12.0593" fill="#7048E8" stroke="white" stroke-width="3" />
    </g>
    <defs>
        <filter id="filter0_d_4_93" x="0.5" y="0.532476" width="253" height="253" filterUnits="userSpaceOnUse" color-interpolation-filters="sRGB">
            <feFlood flood-opacity="0" result="BackgroundImageFix" />
            <feColorMatrix in="SourceAlpha" type="matrix" values="0 0 0 0 0 0 0 0 0 0 0 0 0 0 0 0 0 0 127 0" result="hardAlpha" />
            <feOffset dy="8.03248" />
            <feGaussianBlur stdDeviation="12.5" />
            <feColorMatrix type="matrix" values="0 0 0 0 0.346279 0 0 0 0 0.215677 0 0 0 0 0.5125 0 0 0 0.17 0" />
            <feBlend mode="normal" in2="BackgroundImageFix" result="effect1_dropShadow_4_93" />
            <feBlend mode="normal" in="SourceGraphic" in2="effect1_dropShadow_4_93" result="shape" />
        </filter>
        <linearGradient id="paint0_linear_4_93" x1="33.579" y1="32.1578" x2="278.781" y2="129.474" gradientUnits="userSpaceOnUse">
            <stop stop-color="white" />
            <stop offset="1" stop-color="white" />
        </linearGradient>
    </defs>
</svg>